<svg width="275" height="189" viewBox="0 0 275 189" fill="none" xmlns="http://www.w3.org/2000/svg">
<path d="M128.187 102.919C129.093 103.113 134.575 104.197 134.936 103.371C135.154 102.877 132.998 101.776 132.998 101.776" fill="#E98862"/>
<path d="M129.668 98.3234C129.668 98.3234 137.529 97.056 140.503 101.053C140.579 101.155 140.626 101.28 140.638 101.413C140.649 101.545 140.626 101.679 140.569 101.796C140.513 101.913 140.427 102.008 140.322 102.068C140.218 102.129 140.099 102.153 139.983 102.136C137.587 101.788 134.014 101.733 132.905 103.181C132.259 104.024 128.965 103.085 128.965 103.085" fill="#E98862"/>
<path d="M81.9776 133.814L69.2939 188.461L71.1022 189L83.7859 134.353L81.9776 133.814Z" fill="#C1D8ED"/>
<path d="M104.455 133.919L102.607 134.248L110.168 188.895L112.015 188.567L104.455 133.919Z" fill="#C1D8ED"/>
<path d="M80.2803 81.6639C80.2803 81.6639 64.8345 80.5582 64.8345 95.8517C64.8345 111.145 67.1094 132.519 78.4919 134.914C89.8744 137.309 106.688 136.587 110.592 135.837C115.388 134.916 117.479 122.307 111.091 121.464C92.962 119.068 101.742 83.3223 80.2803 81.6639Z" fill="#C1D8ED"/>
<path d="M109.808 178.155L109.22 186.793L115.745 187.363L116.332 178.725L109.808 178.155Z" fill="#E98862"/>
<path d="M124.036 188.666C124.204 188.665 124.37 188.627 124.525 188.553C124.68 188.48 124.821 188.372 124.939 188.237C125.057 188.101 125.151 187.941 125.214 187.765C125.278 187.588 125.31 187.4 125.309 187.209C125.309 187.174 125.309 187.138 125.306 187.103C125.287 186.828 125.199 186.564 125.052 186.343C124.905 186.122 124.706 185.954 124.477 185.857L116.86 182.965C116.712 182.91 116.556 182.891 116.402 182.911C116.247 182.93 116.098 182.987 115.965 183.078C114.918 183.901 113.665 184.322 112.391 184.279C111.399 184.199 110.447 183.805 109.643 183.141C109.572 183.075 109.486 183.033 109.396 183.021C109.305 183.008 109.213 183.025 109.13 183.07C109.048 183.114 108.978 183.184 108.929 183.272C108.881 183.359 108.855 183.461 108.855 183.565V187.785C108.855 188.036 108.943 188.277 109.099 188.454C109.256 188.632 109.468 188.731 109.69 188.731H109.693L124.036 188.666Z" fill="#C1D8ED"/>
<path d="M142.256 177.825L135.802 179.055L137.084 187.693L143.538 186.463L142.256 177.825Z" fill="#E98862"/>
<path d="M145.592 179.716L131.222 117.072C130.901 115.672 130.179 114.433 129.169 113.548C128.16 112.663 126.92 112.183 125.644 112.182H94.1546V112.205H76.5137V118.332C76.5136 120.098 76.8206 121.847 77.417 123.479C78.0135 125.111 78.8877 126.594 79.9898 127.843C81.0919 129.092 82.4003 130.083 83.8403 130.759C85.2803 131.435 86.8236 131.783 88.3823 131.783H96.9863V131.822H112.007L107.871 181.656L119.351 182.879L123.35 134.689L134.431 183.003L145.592 179.716Z" fill="#262626"/>
<path d="M110.227 102.727L130.703 104.232L131.869 97.2682L111.771 95.1567L103.035 77.4532C102.741 76.8564 102.491 76.2338 102.241 75.6115C101.344 73.3757 99.5607 71.9122 96.2693 71.7515C96.073 71.7444 95.7582 71.7338 95.3531 71.7268C95.2721 73.6691 84.655 73.6621 84.4306 71.6808C81.4328 71.6844 78.9709 72.7297 77.5499 74.3401C72.6418 79.9024 78.6655 89.3811 78.6655 96.7975C78.6655 104.214 75.705 107.541 75.9232 111.348C76.266 117.33 101.922 115.917 103.228 112.517C104.104 110.238 103.255 108.526 102.587 104.451H113.907V100.876L110.227 102.727ZM101.964 95.3848C101.977 94.1371 102.062 92.8315 102.179 91.5029L104.766 96.7508H101.964C101.96 96.309 101.959 95.8577 101.964 95.3848Z" fill="#367CFF"/>
<path d="M95.3534 71.7264C95.2724 73.6688 94.3375 76.5258 91.4643 76.7377C87.6282 77.0273 84.6553 73.6617 84.4309 71.6805H84.4434C88.2141 71.6809 93.1502 71.6879 95.3534 71.7264Z" fill="#E98862"/>
<path d="M150.93 188.666C151.098 188.665 151.265 188.627 151.42 188.553C151.575 188.479 151.715 188.372 151.834 188.236C151.952 188.101 152.045 187.941 152.109 187.764C152.173 187.588 152.205 187.399 152.204 187.208C152.204 187.173 152.204 187.138 152.2 187.102C152.181 186.827 152.093 186.563 151.946 186.342C151.8 186.122 151.6 185.953 151.372 185.856L143.755 182.965C143.607 182.909 143.451 182.891 143.296 182.91C143.142 182.93 142.993 182.987 142.86 183.078C141.813 183.901 140.56 184.322 139.286 184.279C138.294 184.199 137.341 183.804 136.537 183.14C136.467 183.075 136.381 183.033 136.29 183.021C136.2 183.008 136.108 183.025 136.025 183.07C135.943 183.114 135.873 183.184 135.824 183.272C135.775 183.359 135.75 183.461 135.75 183.564V187.785C135.75 188.036 135.838 188.277 135.994 188.454C136.151 188.631 136.363 188.731 136.584 188.731H136.588L150.93 188.666Z" fill="#C1D8ED"/>
<path d="M61.5868 107.874H58.6603V188.732H61.5868V107.874Z" fill="#DEE8F5"/>
<path d="M202.746 107.874H199.819V188.732H202.746V107.874Z" fill="#C1D8ED"/>
<path d="M202.745 106.861H176.352V183.204H202.745V106.861Z" fill="#C1D8ED"/>
<path d="M174.009 177.675H171.083V188.732H174.009V177.675Z" fill="#C1D8ED"/>
<path d="M206.791 104.535H54.6141V109.095H206.791V104.535Z" fill="#DEE8F5"/>
<path d="M177.815 107.874H174.889V188.732H177.815V107.874Z" fill="#DEE8F5"/>
<path d="M149.079 107.874H146.153V188.732H149.079V107.874Z" fill="#DEE8F5"/>
<path d="M176.352 109.101H147.616V183.203H176.352V109.101Z" fill="#DEE8F5"/>
<path d="M146.168 84.1223L142.384 102.123C142.325 102.403 142.323 102.695 142.378 102.976C142.433 103.257 142.543 103.521 142.7 103.746C142.858 103.972 143.058 104.155 143.287 104.281C143.516 104.406 143.766 104.471 144.02 104.472H166.328C166.696 104.472 167.055 104.334 167.348 104.081C167.641 103.828 167.852 103.473 167.95 103.07L172.31 85.0691C172.379 84.7861 172.388 84.4891 172.339 84.2011C172.29 83.913 172.182 83.6418 172.025 83.4085C171.868 83.1752 171.666 82.986 171.434 82.8558C171.202 82.7256 170.947 82.6578 170.688 82.6577H147.805C147.426 82.6577 147.059 82.8022 146.762 83.0679C146.465 83.3337 146.255 83.7051 146.168 84.1223Z" fill="#9EBCEA"/>
<path d="M134.442 104.473H161.404C161.666 104.473 161.918 104.355 162.103 104.145C162.288 103.935 162.393 103.65 162.393 103.353C162.393 103.056 162.288 102.771 162.103 102.561C161.918 102.351 161.666 102.233 161.404 102.233H134.442C134.18 102.233 133.929 102.351 133.743 102.561C133.558 102.771 133.454 103.056 133.454 103.353C133.454 103.65 133.558 103.935 133.743 104.145C133.929 104.355 134.18 104.473 134.442 104.473Z" fill="#9EBCEA"/>
<path d="M158.26 96.3783C159.717 96.3783 160.899 95.0397 160.899 93.3884C160.899 91.7372 159.717 90.3986 158.26 90.3986C156.803 90.3986 155.622 91.7372 155.622 93.3884C155.622 95.0397 156.803 96.3783 158.26 96.3783Z" fill="white"/>
<path d="M111.771 104.232C112.693 104.232 118.256 104.146 118.476 103.259C118.609 102.727 116.311 102.098 116.311 102.098" fill="#E98862"/>
<path d="M116.915 104.6C116.915 102.185 118.994 100.228 121.558 100.228C124.123 100.228 126.202 102.185 126.202 104.6" fill="#DEE8F5"/>
<path d="M112.473 99.4048C112.473 99.4048 119.991 96.5089 123.567 99.8124C123.658 99.8966 123.725 100.01 123.758 100.138C123.791 100.266 123.79 100.402 123.753 100.528C123.717 100.655 123.648 100.767 123.555 100.848C123.463 100.93 123.35 100.978 123.233 100.986C120.822 101.146 117.301 101.843 116.448 103.499C115.952 104.463 112.561 104.232 112.561 104.232" fill="#E98862"/>
<path d="M113.907 98.2306H104.662V104.451H113.907V98.2306Z" fill="#367CFF"/>
<path d="M223.551 147.764L216.272 187.997C216.226 188.207 216.119 188.394 215.968 188.527C215.817 188.66 215.632 188.732 215.441 188.732C215.31 188.732 215.182 188.699 215.064 188.634C214.947 188.569 214.844 188.475 214.764 188.358C214.684 188.242 214.628 188.106 214.601 187.961C214.575 187.817 214.577 187.667 214.609 187.524L221.991 146.826L223.551 147.764Z" fill="#C1D8ED"/>
<path d="M240.652 147.7L247.93 187.933C247.977 188.143 248.084 188.329 248.234 188.463C248.385 188.596 248.571 188.668 248.762 188.668C248.892 188.668 249.021 188.634 249.138 188.569C249.255 188.505 249.358 188.41 249.438 188.294C249.518 188.177 249.574 188.041 249.601 187.897C249.628 187.752 249.625 187.603 249.594 187.459L242.212 146.762L240.652 147.7Z" fill="#C1D8ED"/>
<path d="M248.303 143.829H215.901C215.082 143.829 214.418 144.582 214.418 145.51V149.211C214.418 150.14 215.082 150.892 215.901 150.892H248.303C249.122 150.892 249.786 150.14 249.786 149.211V145.51C249.786 144.582 249.122 143.829 248.303 143.829Z" fill="#DEE8F5"/>
<path d="M239.536 124.053C238.506 123.671 237.448 124.1 236.437 124.971C237.77 121.157 238.32 117.714 236.042 117.559C234.448 117.451 233.227 118.837 232.3 120.807C231.973 117.343 231.132 114.759 229.246 115.615C227.176 116.555 226.861 119.778 227.175 123.15C226.263 121.428 225.281 120.468 224.39 121.478C221.73 124.492 228.26 132.991 228.26 132.991H229.88L230.806 134.129C230.619 134.578 230.516 134.845 230.516 134.845L231.694 137.555C231.694 137.555 243.811 125.639 239.536 124.053Z" fill="#8DDBE0"/>
<path d="M236.629 143.628H227.45L225.914 131.485H238.165L236.629 143.628Z" fill="#C1D8ED"/>
<path d="M33.148 173.141C31.1592 172.494 29.6622 170.478 29.0673 168.232C28.4724 165.987 28.6821 163.549 29.2633 161.299C29.7373 159.462 30.4559 157.687 30.6329 155.784C31.2225 149.447 25.7993 142.973 28.3512 137.296C29.1767 135.459 30.7734 134.025 31.0586 131.99C31.2945 130.307 30.5628 128.67 30.1991 127.018C29.6986 124.743 29.9523 122.161 31.2549 120.339C32.5575 118.517 35.019 117.721 36.814 118.887C39.1618 120.414 39.3653 124.182 38.762 127.172C38.1587 130.161 37.0403 133.238 37.7776 136.189C38.4803 139.002 40.767 141.12 41.1768 144.006C41.5177 146.406 40.4844 148.745 40.03 151.12C39.3164 154.853 40.0428 158.723 40.0739 162.542C40.1051 166.362 39.1537 170.646 33.148 173.141Z" fill="#8DDBE0"/>
<path d="M30.0788 173.504C28.8954 173.077 27.8334 172.302 27.0019 171.257C26.1703 170.212 25.5992 168.935 25.3471 167.557C24.9579 165.284 25.4359 162.731 24.3384 160.778C22.851 158.133 21.3255 157.833 19.4742 155.502C16.6268 151.916 16.5268 150.327 16.7147 143.686C16.7942 140.878 13.3722 137.708 14.5773 135.01C15.639 132.632 18.8665 132.62 20.6967 134.293C22.5269 135.966 23.3309 138.648 24.1286 141.154C24.9264 143.661 25.9314 146.313 27.9529 147.674C29.1655 148.49 30.7526 148.867 31.4223 150.273C31.9604 151.403 31.6893 152.783 31.4731 154.043C30.9293 157.211 31.0658 161.076 33.4117 162.907C34.4712 163.733 35.8564 164.017 36.7268 165.089C37.5872 166.148 37.7258 167.718 37.6676 169.156C37.5531 171.921 36.8808 174.62 35.7024 177.045" fill="#DEE8F5"/>
<path d="M32.9078 175.71C31.8731 174.313 31.2494 172.585 31.1241 170.766C30.9987 168.948 31.3778 167.131 32.2085 165.568C33.6448 162.99 36.322 161.213 36.8829 158.231C37.3834 155.574 35.9951 152.827 36.4108 150.154C36.8626 147.245 39.2338 145.337 41.1163 143.295C41.6066 142.799 42.0283 142.222 42.3672 141.583C43.1955 139.894 42.9646 137.821 43.2457 135.914C43.7845 132.263 46.4389 129.024 49.6618 128.421C52.4885 127.891 54.5135 129.731 54.5135 133.12C54.5135 137.135 51.8594 138.856 50.5057 140.673C48.561 143.305 47.5289 146.649 47.6025 150.08C47.6979 153.913 49.1379 157.994 47.5994 161.409C46.4704 163.916 44.0587 165.251 42.164 167.07C40.7322 168.46 39.5666 170.168 38.7391 172.088C37.9116 174.008 37.4396 176.099 37.3522 178.234" fill="white"/>
<path d="M42.0247 169.415H24.9794V188.732H42.0247V169.415Z" fill="#0CBC8B"/>
<g opacity="0.42">
<path opacity="0.42" d="M42.0247 173.182H24.9794V176.952H42.0247V173.182Z" fill="white"/>
</g>
<path d="M85.3468 73.6928C85.3468 73.6928 87.7563 72.2448 87.2184 64.8087L92.197 63.7623C92.197 63.7623 91.636 70.4296 94.1565 72.5464L85.3468 73.6928Z" fill="#E98862"/>
<g opacity="0.15">
<path opacity="0.15" d="M93.1362 71.1525L89.0006 67.5666L92.249 67.5284C92.3429 68.7885 92.6438 70.0177 93.1362 71.1525Z" fill="black"/>
</g>
<path d="M84.3935 61.9252C84.7382 64.1812 85.8245 66.3178 87.5808 67.046C89.6653 67.9109 91.2094 67.9695 93.613 67.9695C96.8929 67.9695 96.7844 64.0929 96.8766 60.1866C96.9701 56.2644 96.694 52.0573 95.3977 50.6905C92.8112 47.9628 85.2159 49.6904 84.2919 54.2532C83.8142 56.6137 84.0654 59.7777 84.3935 61.9252Z" fill="#E98862"/>
<path d="M98.6346 52.9589C98.6346 52.9589 99.978 52.6188 99.6099 51.1009C99.3663 50.0941 98.2282 50.3176 98.2282 50.3176C98.2282 50.3176 99.3058 50.094 99.3058 49.0279C99.3058 48.3569 98.8502 47.2183 97.4762 47.8688C95.8639 48.632 94.0253 48.5338 92.627 48.2675C91.8361 48.0712 91.0333 47.9428 90.2253 47.8833H90.2213C89.2924 47.8648 88.3665 48.0052 87.4746 48.2997C84.9753 49.1472 81.1928 51.6864 81.9968 57.444C82.8943 63.8693 85.555 66.3266 86.7254 67.1149C86.7947 67.1621 86.8725 67.191 86.9531 67.1992C87.0336 67.2074 87.1147 67.1947 87.1903 67.1621C87.2659 67.1296 87.334 67.078 87.3894 67.0112C87.4448 66.9445 87.486 66.8644 87.5101 66.7769C87.842 65.5726 88.4138 62.5425 88.2543 56.2944C95.9365 55.8675 98.1465 55.7379 98.1465 55.7379C98.1465 55.7379 99.954 55.8149 99.954 54.3175C99.954 52.8201 98.6346 52.9589 98.6346 52.9589Z" fill="#0F1011"/>
<path d="M92.1901 60.1873C92.4395 60.1873 92.6417 59.9582 92.6417 59.6756C92.6417 59.393 92.4395 59.1638 92.1901 59.1638C91.9408 59.1638 91.7386 59.393 91.7386 59.6756C91.7386 59.9582 91.9408 60.1873 92.1901 60.1873Z" fill="#0F1011"/>
<path d="M95.7524 59.8564C96.0018 59.8564 96.2039 59.6273 96.2039 59.3447C96.2039 59.0621 96.0018 58.8329 95.7524 58.8329C95.503 58.8329 95.3008 59.0621 95.3008 59.3447C95.3008 59.6273 95.503 59.8564 95.7524 59.8564Z" fill="#0F1011"/>
<path d="M96.5348 58.2541H96.532L95.336 58.2372C95.2797 58.2362 95.2261 58.2101 95.1868 58.1644C95.1475 58.1187 95.1257 58.0573 95.1263 57.9935C95.1278 57.93 95.151 57.8697 95.1911 57.8254C95.2312 57.7811 95.285 57.7562 95.341 57.7562L96.5373 57.7731C96.5936 57.7735 96.6475 57.7992 96.687 57.8446C96.7266 57.8899 96.7486 57.9512 96.7483 58.015C96.748 58.0788 96.7253 58.1398 96.6853 58.1847C96.6452 58.2295 96.5911 58.2545 96.5348 58.2541Z" fill="#0F1011"/>
<path d="M91.2154 58.7482C91.1635 58.748 91.1135 58.7263 91.0747 58.6872C91.036 58.6481 91.0112 58.5942 91.0052 58.5358C90.9991 58.4774 91.0121 58.4185 91.0418 58.3702C91.0715 58.3219 91.1157 58.2877 91.1662 58.2739L92.3454 57.9525C92.3998 57.9385 92.4569 57.9493 92.5043 57.9827C92.5517 58.016 92.5856 58.0692 92.5987 58.1307C92.6118 58.1922 92.603 58.257 92.5741 58.3112C92.5453 58.3654 92.4988 58.4045 92.4448 58.4201L91.2653 58.7415C91.2489 58.7459 91.2322 58.7482 91.2154 58.7482Z" fill="#0F1011"/>
<path d="M89.842 60.9279C89.8662 61.2141 89.84 61.5028 89.7649 61.7774C89.6898 62.052 89.5673 62.3069 89.4045 62.5274C89.2417 62.7479 89.0418 62.9295 88.8166 63.0616C88.5913 63.1938 88.3451 63.2739 88.0922 63.2973C87.8394 63.3207 87.585 63.287 87.3438 63.198C87.1026 63.109 86.8794 62.9665 86.6872 62.7789C86.4949 62.5913 86.3375 62.3623 86.2241 62.1051C86.1107 61.848 86.0435 61.5679 86.0264 61.281C86.0015 60.9962 86.0274 60.7085 86.1026 60.4352C86.1778 60.1619 86.3008 59.9085 86.4642 59.6902C86.6276 59.4719 86.8281 59.2931 87.0538 59.1644C87.2795 59.0358 87.5257 58.9599 87.7778 58.9414C89.1411 58.8926 89.7547 59.7335 89.842 60.9279Z" fill="#E98862"/>
<g opacity="0.15">
<path opacity="0.15" d="M94.1945 62.5139C94.1572 62.5139 94.1211 62.4988 94.0928 62.4712C94.0645 62.4436 94.0459 62.4054 94.0403 62.3636C94.0348 62.3217 94.0426 62.279 94.0625 62.2432C94.0824 62.2075 94.113 62.1809 94.1487 62.1685L95.0671 61.8489L94.4245 60.2279C94.4075 60.1852 94.4063 60.1365 94.421 60.0927C94.4357 60.0489 94.4651 60.0135 94.5028 59.9943C94.5406 59.9751 94.5835 59.9737 94.6222 59.9903C94.6608 60.007 94.692 60.0404 94.709 60.0831L95.4236 61.8867C95.4326 61.9095 95.4373 61.9343 95.4373 61.9593C95.4373 61.9844 95.4325 62.0091 95.4234 62.0319C95.4143 62.0547 95.401 62.0751 95.3845 62.0916C95.3679 62.1082 95.3484 62.1206 95.3273 62.1279L94.2403 62.5061C94.2254 62.5113 94.21 62.5139 94.1945 62.5139Z" fill="black"/>
</g>
<path d="M92.3989 63.7058C92.3989 63.7058 94.0658 63.905 95.2347 63.4424C95.2347 63.4424 95.2254 64.6862 93.9066 64.8091C92.5878 64.932 92.3989 63.7058 92.3989 63.7058Z" fill="white"/>
</svg>
