<svg width="311" height="158" viewBox="0 0 311 158" fill="none" xmlns="http://www.w3.org/2000/svg">
<path d="M303.077 61.1794L299.78 68.8648L302.117 69.6972L305.414 62.0119L303.077 61.1794Z" fill="#367CFF"/>
<path d="M97.1223 42.334L95.2528 43.8595L101.295 50.0062L103.164 48.4807L97.1223 42.334Z" fill="#0CBC8B"/>
<path d="M124.823 69.8456L117.575 74.7925L119.08 76.6229L126.328 71.676L124.823 69.8456Z" fill="#367CFF"/>
<path d="M208.66 13.078L206.94 14.7433L213.536 20.3983L215.256 18.733L208.66 13.078Z" fill="#367CFF"/>
<path d="M160.701 14.9169L156.187 22.0708L158.363 23.2104L162.877 16.0565L160.701 14.9169Z" fill="#0CBC8B"/>
<path d="M226.248 76.0947L224.125 77.315L228.959 84.2933L231.081 83.073L226.248 76.0947Z" fill="#0CBC8B"/>
<path d="M127.833 110.076L125.588 111.098L129.635 118.479L131.88 117.457L127.833 110.076Z" fill="#0CBC8B"/>
<path d="M94.986 90.6531L92.3853 98.5571L94.789 99.2136L97.3897 91.3096L94.986 90.6531Z" fill="#367CFF"/>
<path d="M252.092 115.283L244.57 119.879L245.968 121.778L253.49 117.182L252.092 115.283Z" fill="#367CFF"/>
<path d="M253.218 -4.90858e-06L248.705 7.15375L250.881 8.29336L255.394 1.13961L253.218 -4.90858e-06Z" fill="#0CBC8B"/>
<path d="M2.33747 58.5256L0 59.358L3.29701 67.0434L5.63448 66.2109L2.33747 58.5256Z" fill="#0CBC8B"/>
<path d="M244.983 49.0311L243.478 50.8614L250.726 55.8083L252.231 53.978L244.983 49.0311Z" fill="#0CBC8B"/>
<path d="M41.3723 15.3158L34.7765 20.9707L36.4964 22.636L43.0922 16.981L41.3723 15.3158Z" fill="#367CFF"/>
<path d="M114.428 8.58161L112.252 9.72125L116.766 16.8752L118.942 15.7355L114.428 8.58161Z" fill="#367CFF"/>
<path d="M25.6828 98.4029L20.8496 105.381L22.972 106.601L27.8053 99.6232L25.6828 98.4029Z" fill="#0CBC8B"/>
<path d="M4.27497 117.519L2.87708 119.419L10.4031 124.015L11.8009 122.115L4.27497 117.519Z" fill="#367CFF"/>
<path d="M294.632 26.391L292.456 27.5306L296.97 34.6843L299.146 33.5447L294.632 26.391Z" fill="#367CFF"/>
<path d="M200.339 45.8866L194.296 52.0334L196.166 53.5589L202.208 47.4122L200.339 45.8866Z" fill="#367CFF"/>
<path d="M147.296 115.171L143.248 122.552L145.493 123.574L149.541 116.193L147.296 115.171Z" fill="#0CBC8B"/>
<path d="M180.144 95.7487L177.74 96.4052L180.341 104.309L182.744 103.653L180.144 95.7487Z" fill="#367CFF"/>
<path d="M180.953 100.259L172.399 94.3349C172.211 94.2048 171.995 94.1118 171.766 94.0618C171.536 94.0118 171.298 94.0059 171.065 94.0444C170.833 94.083 170.612 94.1651 170.417 94.2857C170.221 94.4063 170.055 94.5627 169.93 94.7448C169.709 95.0877 169.637 95.4929 169.726 95.8818C169.815 96.2708 170.059 96.6158 170.411 96.8499L172.246 98.1202L164.465 96.5378C163.604 96.348 162.413 96.6176 162.243 97.5122C162.153 97.8526 162.193 98.2107 162.355 98.5282C162.517 98.8457 162.792 99.1038 163.136 99.2603C163.132 99.2672 163.129 99.2745 163.127 99.2821C163.126 99.288 163.126 99.2939 163.127 99.2998L161.798 99.0074C161.552 98.9533 161.295 98.95 161.047 98.9976C160.8 99.0452 160.567 99.1426 160.366 99.2827C160.164 99.4228 160 99.602 159.884 99.8073C159.769 100.013 159.705 100.239 159.698 100.469C159.694 100.833 159.827 101.186 160.075 101.471C160.323 101.755 160.671 101.953 161.06 102.032L161.625 102.157C161.629 102.173 161.636 102.189 161.645 102.203C161.242 102.2 160.85 102.328 160.541 102.564C160.231 102.799 160.023 103.127 159.955 103.49C159.893 103.888 159.998 104.293 160.249 104.624C160.5 104.955 160.879 105.187 161.31 105.275L162.715 105.584C162.692 105.593 162.671 105.606 162.655 105.623C162.639 105.64 162.627 105.661 162.621 105.683C162.615 105.709 162.618 105.737 162.629 105.762C162.269 105.85 161.951 106.043 161.723 106.312C161.495 106.581 161.37 106.911 161.368 107.251C161.374 107.608 161.512 107.952 161.759 108.229C162.007 108.505 162.35 108.698 162.732 108.775L174.582 111.383C176.24 111.748 177.98 111.654 179.578 111.112C181.177 110.57 182.561 109.606 183.555 108.343C184.411 107.253 184.767 105.903 184.548 104.578C184.328 103.253 183.551 102.058 182.38 101.247L180.953 100.259Z" fill="#E98862"/>
<g opacity="0.2">
<path opacity="0.2" d="M170.828 100.862C170.819 100.898 170.793 100.929 170.759 100.949C170.724 100.968 170.682 100.975 170.642 100.966L163.244 99.4516C163.224 99.4474 163.205 99.4397 163.189 99.4289C163.172 99.4181 163.157 99.4043 163.146 99.3885C163.135 99.3726 163.128 99.3549 163.124 99.3364C163.121 99.3179 163.121 99.2989 163.126 99.2806C163.13 99.2623 163.139 99.245 163.151 99.2296C163.163 99.2143 163.178 99.2012 163.195 99.1912C163.213 99.1812 163.232 99.1744 163.252 99.1712C163.273 99.168 163.293 99.1685 163.314 99.1726L170.711 100.687C170.731 100.692 170.75 100.699 170.767 100.71C170.784 100.721 170.798 100.735 170.809 100.751C170.82 100.767 170.827 100.784 170.831 100.803C170.834 100.822 170.834 100.841 170.829 100.859L170.828 100.862Z" fill="#0C0C0C"/>
</g>
<g opacity="0.2">
<path opacity="0.2" d="M170.186 103.852C170.176 103.889 170.15 103.921 170.115 103.94C170.08 103.96 170.038 103.966 169.997 103.957L161.742 102.268C161.722 102.264 161.703 102.256 161.686 102.245C161.669 102.235 161.655 102.221 161.644 102.205C161.633 102.189 161.625 102.171 161.622 102.153C161.618 102.134 161.619 102.115 161.624 102.097C161.634 102.06 161.659 102.029 161.694 102.009C161.729 101.989 161.771 101.981 161.812 101.989L170.067 103.678C170.087 103.682 170.106 103.69 170.123 103.701C170.14 103.711 170.155 103.725 170.166 103.741C170.177 103.757 170.184 103.775 170.187 103.793C170.191 103.812 170.19 103.831 170.186 103.849V103.852Z" fill="#0C0C0C"/>
</g>
<g opacity="0.2">
<path opacity="0.2" d="M169.51 107.095C169.5 107.132 169.475 107.163 169.44 107.183C169.406 107.202 169.364 107.209 169.324 107.2L162.739 105.853C162.698 105.845 162.663 105.822 162.64 105.79C162.618 105.758 162.611 105.719 162.62 105.682C162.629 105.645 162.654 105.613 162.689 105.593C162.724 105.572 162.767 105.566 162.807 105.574L169.392 106.921C169.413 106.925 169.432 106.933 169.449 106.944C169.466 106.955 169.48 106.969 169.491 106.985C169.502 107.001 169.509 107.018 169.513 107.037C169.516 107.055 169.516 107.075 169.511 107.093L169.51 107.095Z" fill="#0C0C0C"/>
</g>
<path d="M140.342 59.5105L145.118 50.741C145.223 50.5483 145.371 50.3776 145.552 50.2399C145.733 50.1021 145.944 50.0002 146.171 49.9407C146.398 49.8813 146.636 49.8655 146.87 49.8944C147.104 49.9233 147.328 49.9963 147.53 50.1088C147.894 50.3267 148.157 50.6602 148.268 51.0448C148.378 51.4293 148.327 51.8374 148.126 52.1899L147.102 54.0703L153.3 49.5048C153.98 48.986 155.178 48.7456 155.766 49.4785C156.012 49.7471 156.152 50.0838 156.161 50.4338C156.171 50.7839 156.05 51.1265 155.818 51.4058C155.825 51.4105 155.832 51.4157 155.837 51.4216C155.841 51.4266 155.844 51.4318 155.847 51.4373L156.895 50.637C157.089 50.4889 157.317 50.3822 157.562 50.3246C157.807 50.267 158.063 50.26 158.312 50.3041C158.56 50.3482 158.795 50.4422 158.999 50.5793C159.202 50.7165 159.37 50.8933 159.489 51.0969C159.669 51.4209 159.722 51.7916 159.638 52.1468C159.555 52.5021 159.34 52.8205 159.03 53.0488L158.584 53.3892C158.589 53.4055 158.59 53.4224 158.588 53.4392C158.948 53.273 159.361 53.2288 159.753 53.3145C160.146 53.4002 160.492 53.6103 160.73 53.9071C160.98 54.239 161.083 54.6445 161.019 55.0427C160.955 55.4408 160.728 55.8024 160.385 56.0551L159.277 56.9003C159.302 56.8983 159.327 56.9018 159.35 56.9105C159.373 56.9191 159.394 56.9327 159.41 56.95C159.428 56.9717 159.439 56.9976 159.441 57.0247C159.807 56.9576 160.187 57.0019 160.522 57.1506C160.857 57.2994 161.129 57.5445 161.297 57.8481C161.466 58.1702 161.51 58.5348 161.423 58.8828C161.336 59.2308 161.123 59.5419 160.818 59.7657L151.472 66.8983C150.165 67.8962 148.56 68.5155 146.864 68.677C145.168 68.8385 143.457 68.5347 141.952 67.8047C140.654 67.1752 139.676 66.1096 139.227 64.834C138.778 63.5584 138.892 62.1735 139.545 60.9734L140.342 59.5105Z" fill="#E98862"/>
<g opacity="0.2">
<path opacity="0.2" d="M149.707 55.9525C149.733 55.9813 149.771 55.9994 149.812 56.0029C149.853 56.0064 149.894 55.9949 149.926 55.9711L155.816 51.6213C155.848 51.5975 155.869 51.5629 155.873 51.5252C155.877 51.4874 155.865 51.4497 155.839 51.4203C155.813 51.3908 155.775 51.3721 155.733 51.3681C155.692 51.3642 155.65 51.3754 155.618 51.3993L149.729 55.749C149.696 55.7728 149.676 55.8072 149.672 55.8447C149.667 55.8821 149.679 55.9197 149.705 55.9491L149.707 55.9525Z" fill="#0C0C0C"/>
</g>
<g opacity="0.2">
<path opacity="0.2" d="M151.74 58.3723C151.767 58.4011 151.805 58.4191 151.846 58.4226C151.887 58.426 151.928 58.4145 151.96 58.3906L158.533 53.5364C158.565 53.5125 158.585 53.4781 158.589 53.4406C158.594 53.4032 158.582 53.3657 158.556 53.3363C158.529 53.3082 158.491 53.2904 158.45 53.2864C158.41 53.2825 158.369 53.2928 158.336 53.3152L151.761 58.1685C151.729 58.1924 151.709 58.2267 151.704 58.2642C151.7 58.3017 151.712 58.3392 151.738 58.3686L151.74 58.3723Z" fill="#0C0C0C"/>
</g>
<g opacity="0.2">
<path opacity="0.2" d="M153.927 61.0042C153.953 61.033 153.991 61.0511 154.032 61.0546C154.073 61.0581 154.114 61.0467 154.146 61.0228L159.389 57.1507C159.422 57.1268 159.442 57.0922 159.447 57.0545C159.451 57.0168 159.439 56.9791 159.412 56.9496C159.386 56.9202 159.348 56.9014 159.307 56.8975C159.265 56.8935 159.224 56.9047 159.192 56.9286L153.947 60.8007C153.915 60.8246 153.895 60.8589 153.891 60.8964C153.886 60.9339 153.898 60.9714 153.924 61.0008L153.927 61.0042Z" fill="#0C0C0C"/>
</g>
<path d="M33.1595 51.9915C33.1595 51.9915 32.4859 61.1994 30.2125 64.5393C23.6666 74.1569 21.7702 84.9761 28.3252 90.6289C34.8802 96.2817 76.69 96.36 79.8576 83.3588C82.5241 72.4131 76.8017 71.236 75.4091 62.2076C74.7792 58.1219 73.046 49.5548 73.046 49.5548" fill="#0A0A0A"/>
<path d="M69.0367 81.4527C68.9646 81.4441 68.1637 93.5521 52.7256 92.4965C42.0381 91.7668 38.2275 81.435 37.9828 81.435C39.135 81.2117 41.0754 80.8873 41.587 80.6383C43.2701 79.8146 45.3515 78.9571 45.8949 75.9794C46.2086 74.2644 45.6769 65.4832 45.8403 63.7459L62.2455 67.0832C62.0162 70.7507 60.4119 79.2524 66.0351 80.757C66.9706 81.0065 67.9786 81.2354 69.0367 81.4527Z" fill="#E98862"/>
<path opacity="0.5" d="M62.4754 77.283C62.2185 76.5285 62.053 75.7506 61.982 74.9632C61.8017 73.1665 61.8377 71.3572 62.0893 69.5676C58.7551 69.1575 55.614 67.9036 53.023 65.9482C52.7184 66.9732 51.0429 71.4521 51.5068 72.4262C52.383 74.2678 56.503 77.283 62.4754 77.283Z" fill="#0C0C0C"/>
<path d="M60.3542 73.5109C53.8861 74.0826 45.5175 71.7239 43.7839 63.8759L42.2198 56.7948C40.4862 48.9471 43.6048 41.7557 51.7146 40.2685C59.8246 38.7822 67.2916 44.0315 69.0251 51.8794L69.7178 55.0144C70.3829 58.0256 71.894 72.4934 60.3542 73.5109Z" fill="#E98862"/>
<path opacity="0.1" d="M56.2426 63.2269C57.307 63.1112 58.0944 62.4408 58.0012 61.7295C57.9081 61.0182 56.9697 60.5353 55.9053 60.651C54.8409 60.7667 54.0536 61.4372 54.1467 62.1485C54.2399 62.8598 55.1782 63.3426 56.2426 63.2269Z" fill="#0C0C0C"/>
<path opacity="0.1" d="M67.4898 60.3831C67.5839 61.0934 68.5235 61.5756 69.5879 61.4613C69.7718 61.4412 69.953 61.4037 70.1284 61.3495C70.178 60.5026 70.1808 59.688 70.1538 58.9337C69.8582 58.8663 69.5513 58.8499 69.2491 58.8854C68.1847 58.9997 67.3976 59.67 67.4898 60.3831Z" fill="#0C0C0C"/>
<path opacity="0.5" d="M62.7866 62.5786C62.7919 62.5781 62.7971 62.5773 62.8023 62.5763C63.131 62.5139 63.4557 62.435 63.7748 62.3399C64.251 62.1947 64.8728 61.9563 64.7875 61.5639C64.689 61.1169 62.2778 56.5388 62.0042 56.0188C61.993 55.9954 61.9768 55.9742 61.9564 55.9566C61.936 55.939 61.9119 55.9253 61.8856 55.9164C61.8592 55.9075 61.8312 55.9035 61.8032 55.9046C61.7751 55.9058 61.7476 55.9121 61.7222 55.9232C61.6969 55.9342 61.6743 55.9499 61.6558 55.9691C61.6372 55.9883 61.6231 56.0107 61.6143 56.035C61.6055 56.0593 61.6021 56.085 61.6044 56.1105C61.6068 56.136 61.6147 56.1608 61.6278 56.1835C62.6558 58.1331 64.3116 61.3387 64.3781 61.6396C64.326 61.78 63.5361 62.0541 62.7208 62.2039C62.6937 62.2078 62.6678 62.2166 62.6445 62.2297C62.6212 62.2429 62.6009 62.26 62.5849 62.2803C62.5688 62.3005 62.5573 62.3234 62.551 62.3477C62.5447 62.372 62.5437 62.3972 62.5481 62.4218C62.5524 62.4465 62.5621 62.4701 62.5765 62.4913C62.5909 62.5126 62.6097 62.531 62.6319 62.5456C62.6541 62.5602 62.6793 62.5707 62.7059 62.5765C62.7326 62.5822 62.7602 62.5831 62.7873 62.5792L62.7866 62.5786Z" fill="#0C0C0C"/>
<path d="M35.7489 59.3373L43.0194 58.0433C48.5116 55.9508 50.0698 47.2299 50.0698 47.2299C50.0698 47.2299 56.8478 53.1114 73.0472 49.5548C73.0472 49.5548 69.5283 28.9506 45.6085 35.2062C37.8959 37.2228 32.4326 44.3856 33.2451 53.8728C33.8145 60.5195 35.7489 59.3373 35.7489 59.3373Z" fill="#0A0A0A"/>
<path d="M44.8157 66.1746C42.3512 66.6265 39.8227 64.5905 39.3258 62.3445C38.8288 60.0985 40.5543 58.4944 43.0188 58.0422L44.6212 59.3141L46.9342 65.7856L44.8157 66.1746Z" fill="#E98862"/>
<path d="M63.7513 52.368C64.3679 51.9707 65.089 51.7293 65.8413 51.6682C66.2193 51.6352 66.6005 51.6545 66.9722 51.7254C67.347 51.795 67.7107 51.9072 68.0548 52.0593L68.0655 52.0638C68.1036 52.0792 68.1468 52.0803 68.1859 52.067C68.2249 52.0537 68.2567 52.027 68.2744 51.9926C68.2922 51.9583 68.2945 51.9189 68.2808 51.883C68.2671 51.8472 68.2386 51.8176 68.2013 51.8006C67.8366 51.6252 67.4492 51.4923 67.0481 51.405C66.6442 51.3155 66.2279 51.2819 65.813 51.3052C64.9728 51.3475 64.1603 51.5943 63.4602 52.0198C63.4341 52.0359 63.4117 52.0566 63.3944 52.0806C63.3771 52.1045 63.3651 52.1314 63.3592 52.1596C63.3533 52.1878 63.3535 52.2168 63.3599 52.245C63.3663 52.2731 63.3787 52.2998 63.3965 52.3235C63.4142 52.3473 63.4369 52.3676 63.4633 52.3833C63.4897 52.3991 63.5192 52.4099 63.5502 52.4152C63.5812 52.4205 63.613 52.4202 63.6439 52.4143C63.6747 52.4084 63.704 52.397 63.73 52.3808L63.7356 52.3774L63.7513 52.368Z" fill="#0C0C0C"/>
<path d="M57.1098 53.2043C56.2841 53.0546 55.4296 53.1096 54.6352 53.3635C54.2426 53.4867 53.8724 53.6629 53.5372 53.8863C53.2033 54.1068 52.9012 54.3647 52.6381 54.654C52.6116 54.6828 52.5982 54.7198 52.601 54.7573C52.6037 54.7948 52.6223 54.8299 52.6528 54.8552C52.6833 54.8806 52.7234 54.8941 52.7646 54.8931C52.8059 54.8921 52.8451 54.8766 52.874 54.8498L52.8825 54.8418C53.1364 54.5812 53.4251 54.3508 53.7421 54.1558C54.0557 53.9609 54.3999 53.8103 54.7629 53.7091C55.4834 53.5028 56.2511 53.4742 56.9877 53.6262L57.0059 53.6305C57.0677 53.6441 57.133 53.6348 57.1873 53.6046C57.2416 53.5745 57.2805 53.5259 57.2955 53.4695C57.3105 53.4132 57.3003 53.3538 57.2671 53.3043C57.234 53.2548 57.1807 53.2194 57.1189 53.2057L57.1098 53.2043Z" fill="#0C0C0C"/>
<path d="M43.0244 57.9342C47.9117 56.2764 49.5336 53.2014 50.0331 50.9131C50.3563 49.3869 50.3261 47.8161 49.9443 46.3012L49.7931 46.3393C50.1691 47.8344 50.1982 49.3846 49.8784 50.8905C49.3853 53.1414 47.7866 56.1672 42.9695 57.8007L43.0244 57.9342Z" fill="#0C0C0C"/>
<path d="M81.61 82.893L128.016 97.0263L114.392 102.544L137.531 59.2927L156.443 67.3228L134.973 111.283C133.887 113.506 131.96 115.299 129.543 116.334C127.126 117.369 124.381 117.577 121.81 116.921L121.348 116.801L74.2393 104.751L81.61 82.893Z" fill="#367CFF"/>
<path d="M52.4377 89.4696C41.7426 89.0103 41.2924 80.7395 41.2924 80.7395C41.2924 80.7395 35.9932 81.0517 32.4706 81.4858C26.7033 82.1967 22.8986 83.9785 19.8707 86.7371C17.0542 89.3035 15.3394 92.08 17.1539 109.807C18.4678 122.642 17.5433 150.874 17.5433 150.874H82.7167C82.7167 150.874 87.2677 110.086 87.8073 104.309C88.8369 93.2797 91.746 90.8447 85.852 85.163C81.5777 81.0425 70.5429 80.7395 66.1013 80.7401C66.0289 80.7401 67.0026 90.0953 52.4377 89.4696Z" fill="#367CFF"/>
<path d="M64.9547 64.1255C62.8532 65.0991 60.4556 65.4069 58.1406 65.0004C58.0605 64.9867 57.9777 64.9941 57.902 65.0217C57.8262 65.0492 57.7607 65.0959 57.713 65.1561C57.6652 65.2163 57.6373 65.2877 57.6324 65.3619C57.6275 65.436 57.6459 65.5099 57.6854 65.5749C58.3756 66.6828 60.0125 68.5761 62.8209 67.8044C64.6341 67.3059 65.3196 65.6064 65.5737 64.5548C65.5911 64.4821 65.5853 64.4064 65.5571 64.3365C65.5288 64.2667 65.4793 64.2056 65.4143 64.1605C65.3493 64.1154 65.2715 64.0882 65.1901 64.082C65.1087 64.0758 65.027 64.0909 64.9547 64.1255Z" fill="white"/>
<path d="M65.0861 55.6101C65.647 55.6101 66.1016 55.1959 66.1016 54.6849C66.1016 54.1739 65.647 53.7596 65.0861 53.7596C64.5253 53.7596 64.0706 54.1739 64.0706 54.6849C64.0706 55.1959 64.5253 55.6101 65.0861 55.6101Z" fill="#0C0C0C"/>
<path d="M55.3285 57.1664C55.8893 57.1664 56.344 56.7522 56.344 56.2412C56.344 55.7302 55.8893 55.316 55.3285 55.316C54.7676 55.316 54.313 55.7302 54.313 56.2412C54.313 56.7522 54.7676 57.1664 55.3285 57.1664Z" fill="#0C0C0C"/>
<path d="M87.6624 108.328C87.6558 108.329 87.6492 108.329 87.6426 108.328C87.6014 108.324 87.5639 108.304 87.5384 108.274C87.5129 108.244 87.5014 108.207 87.5064 108.169L88.5157 100.715C88.5178 100.696 88.5241 100.678 88.5341 100.662C88.5442 100.645 88.5577 100.631 88.5741 100.619C88.5904 100.608 88.6091 100.599 88.6291 100.594C88.6491 100.59 88.6699 100.588 88.6904 100.591C88.7109 100.593 88.7306 100.599 88.7485 100.609C88.7665 100.618 88.7822 100.63 88.7949 100.645C88.8076 100.66 88.8169 100.677 88.8224 100.695C88.8279 100.713 88.8294 100.732 88.8269 100.751L87.8177 108.204C87.8126 108.238 87.7941 108.27 87.7656 108.293C87.737 108.316 87.7003 108.328 87.6624 108.328Z" fill="#0C0C0C"/>
<path d="M252.632 50.8133C252.632 50.8133 248.744 46.8355 249.195 39.3859C249.544 33.6179 254.427 38.2826 254.427 38.2826C254.427 38.2826 254.723 34.1315 257.868 35.1199C261.013 36.1083 261.896 40.6856 261.896 40.6856" fill="#0C0C0C"/>
<path d="M274.48 38.6288C274.48 38.6288 290.183 43.1103 280.049 61.8666L278.61 61.6951L275.69 61.3478" fill="#0C0C0C"/>
<path d="M252.143 81.4224C252.215 81.4138 253.013 93.4815 268.4 92.4296C279.052 91.7025 282.85 81.4055 283.094 81.4055C281.946 81.1828 280.012 80.8596 279.501 80.6115C277.824 79.7903 275.749 78.9359 275.208 75.9682C274.896 74.2575 275.425 65.5069 275.263 63.7759L258.911 67.1009C259.14 70.7561 260.739 79.2298 255.134 80.7295C254.202 80.9776 253.196 81.2057 252.143 81.4224Z" fill="#E98862"/>
<path opacity="0.52" d="M258.682 77.2667C258.938 76.5146 259.103 75.7392 259.174 74.9544C259.354 73.1636 259.318 71.3602 259.067 69.5765C262.391 69.1679 265.521 67.9182 268.104 65.9694C268.408 66.9909 270.078 71.455 269.615 72.4259C268.741 74.2612 264.635 77.2667 258.682 77.2667Z" fill="#0C0C0C"/>
<path d="M260.643 73.1799C267.082 73.8119 275.45 71.545 277.272 63.7408L278.915 56.6988C280.734 48.8957 277.713 41.6966 269.648 40.1345C261.583 38.5724 254.079 43.7316 252.258 51.5359L251.53 54.6534C251.301 55.7278 251.152 56.8151 251.085 57.9079C250.885 60.7947 250.593 65.1865 252.055 68.4586C253.435 71.5479 256.529 72.7761 260.643 73.1799Z" fill="#E98862"/>
<path d="M255.528 55.2008C256.089 55.2008 256.543 54.7866 256.543 54.2756C256.543 53.7646 256.089 53.3503 255.528 53.3503C254.967 53.3503 254.512 53.7646 254.512 54.2756C254.512 54.7866 254.967 55.2008 255.528 55.2008Z" fill="#0C0C0C"/>
<path d="M265.173 56.126C265.734 56.126 266.188 55.7118 266.188 55.2008C266.188 54.6898 265.734 54.2756 265.173 54.2756C264.612 54.2756 264.157 54.6898 264.157 55.2008C264.157 55.7118 264.612 56.126 265.173 56.126Z" fill="#0C0C0C"/>
<path d="M276.216 66.0214C278.667 66.4961 281.211 64.4919 281.732 62.2587C282.253 60.0256 280.554 58.4095 278.103 57.9347L276.491 59.1864L274.109 65.6132L276.216 66.0214Z" fill="#E98862"/>
<path d="M274.56 61.9801C274.56 61.9801 276.153 50.7582 272.617 49.4053C270.264 48.5044 263.619 50.595 258.316 48.6362C255.996 47.7787 253.588 47.9073 253.128 48.9029C252.946 49.297 252.736 43.1191 257.492 39.3233C261.279 36.301 271.339 37.0804 275.559 39.0635C287.245 44.554 278.504 58.5144 278.504 58.5144L277.117 62.2302L274.56 61.9801Z" fill="#0C0C0C"/>
<g opacity="0.52">
<path opacity="0.52" d="M258.17 62.783L258.154 62.7807C257.363 62.6295 256.056 62.2948 256.18 61.7571C256.283 61.311 258.733 56.7497 259.013 56.2312C259.037 56.1866 259.079 56.1525 259.131 56.1364C259.182 56.1203 259.239 56.1236 259.288 56.1455C259.337 56.1673 259.374 56.206 259.392 56.253C259.409 56.3001 259.406 56.3515 259.382 56.3961C258.295 58.4158 256.653 61.5308 256.582 61.834C256.631 61.9769 257.42 62.2573 258.238 62.4137C258.289 62.4242 258.334 62.4522 258.364 62.492C258.393 62.5318 258.404 62.5804 258.396 62.6277C258.387 62.675 258.359 62.7175 258.317 62.7464C258.275 62.7753 258.222 62.7884 258.17 62.783Z" fill="#0C0C0C"/>
</g>
<path d="M257.987 51.3813C257.211 51.0243 256.343 50.8646 255.475 50.9191C255.049 50.9435 254.629 51.0261 254.23 51.164C253.835 51.2988 253.46 51.4786 253.114 51.6991C253.056 51.7326 253.015 51.7855 253 51.8464C252.984 51.9073 252.996 51.9712 253.032 52.0244C253.068 52.0776 253.125 52.1158 253.192 52.1307C253.258 52.1456 253.329 52.1361 253.387 52.1041L253.406 52.0947C253.723 51.9155 254.063 51.7734 254.419 51.6717C254.77 51.5695 255.136 51.5164 255.504 51.5142C256.232 51.5044 256.95 51.6702 257.586 51.9947L257.609 52.0075C257.654 52.0317 257.703 52.0475 257.754 52.0543C257.806 52.061 257.858 52.0584 257.908 52.0466C257.958 52.0349 258.005 52.0143 258.046 51.9859C258.088 51.9575 258.123 51.9219 258.149 51.8813C258.175 51.8406 258.192 51.7956 258.199 51.7489C258.206 51.7021 258.203 51.6546 258.19 51.609C258.176 51.5634 258.153 51.5207 258.122 51.4832C258.091 51.4457 258.051 51.4143 258.007 51.3907L257.987 51.3813Z" fill="#0C0C0C"/>
<path d="M263.794 52.8113C264.499 52.6464 265.24 52.6542 265.941 52.8339C266.296 52.9224 266.634 53.0594 266.945 53.24C267.26 53.4218 267.549 53.6389 267.805 53.8863L267.819 53.8991C267.867 53.9419 267.932 53.9659 267.999 53.9663C268.067 53.9667 268.132 53.9433 268.181 53.9011C268.23 53.859 268.259 53.8012 268.262 53.7399C268.265 53.6786 268.243 53.6185 268.198 53.5721C267.926 53.2782 267.615 53.0167 267.271 52.7938C266.924 52.5672 266.541 52.3891 266.136 52.2656C265.313 52.0095 264.429 51.9602 263.578 52.1227C263.528 52.1327 263.48 52.1517 263.438 52.1785C263.396 52.2053 263.359 52.2394 263.332 52.2789C263.275 52.3587 263.256 52.4556 263.278 52.5483C263.301 52.641 263.362 52.7218 263.45 52.7731C263.537 52.8243 263.644 52.8418 263.746 52.8216L263.766 52.817L263.794 52.8113Z" fill="#0C0C0C"/>
<path d="M256.927 64.5142C259.214 65.0349 261.627 64.8462 263.783 63.978C263.858 63.9483 263.94 63.9386 264.021 63.9501C264.102 63.9615 264.177 63.9936 264.238 64.0425C264.299 64.0915 264.344 64.1553 264.367 64.2266C264.39 64.2979 264.39 64.3736 264.368 64.445C263.967 65.6658 262.837 67.8464 259.91 67.6658C258.021 67.5497 256.935 66.0328 256.428 65.0599C256.393 64.9924 256.38 64.9172 256.39 64.8431C256.401 64.7691 256.434 64.6992 256.486 64.6419C256.539 64.5845 256.608 64.542 256.686 64.5194C256.764 64.4968 256.848 64.495 256.927 64.5142Z" fill="white"/>
<path d="M266.003 40.9222C267.096 38.5847 266.569 36.1414 264.826 35.4648C263.083 34.7883 260.784 36.1348 259.691 38.4723C258.598 40.8097 259.125 43.2531 260.868 43.9296C262.611 44.6061 264.91 43.2596 266.003 40.9222Z" fill="#0C0C0C"/>
<path d="M268.639 89.4696C279.334 89.0103 279.784 80.7395 279.784 80.7395C279.784 80.7395 285.083 81.0517 288.606 81.4858C294.373 82.1967 298.178 83.9785 301.206 86.7371C304.023 89.3035 305.737 92.08 303.923 109.807C302.609 122.642 303.534 150.874 303.534 150.874H238.36C238.36 150.874 233.809 110.088 233.269 104.309C232.24 93.2797 229.331 90.8447 235.225 85.163C239.499 81.0425 250.534 80.7395 254.975 80.7401C255.047 80.7401 254.075 90.0953 268.639 89.4696Z" fill="#367CFF"/>
<path d="M233.115 87.7175L216.265 120.265L183.035 97.4973L169.837 113.488L213.838 143.636C214.232 143.903 214.643 144.147 215.07 144.368C216.327 145.01 217.711 145.42 219.142 145.574C220.573 145.729 222.023 145.625 223.411 145.269C224.798 144.913 226.094 144.311 227.226 143.498C228.358 142.686 229.303 141.678 230.008 140.532L230.198 140.223L255.906 98.4149L233.115 87.7175Z" fill="#367CFF"/>
<path d="M306.034 151.16H9.23745C9.15425 151.16 9.07445 151.13 9.01562 151.076C8.95679 151.023 8.92374 150.95 8.92374 150.874C8.92374 150.798 8.95679 150.726 9.01562 150.672C9.07445 150.618 9.15425 150.588 9.23745 150.588H306.034C306.117 150.588 306.197 150.618 306.256 150.672C306.315 150.726 306.348 150.798 306.348 150.874C306.348 150.95 306.315 151.023 306.256 151.076C306.197 151.13 306.117 151.16 306.034 151.16Z" fill="#292A2E"/>
<path d="M241.479 108.36H82.5467V157.857H241.479V108.36Z" fill="white"/>
<path d="M241.635 158H82.3898V108.217H241.635V158ZM82.7035 157.714H241.322V108.503H82.7035V157.714Z" fill="#0C0C0C"/>
<path d="M74.6989 123.487L84.5096 119.495C84.7252 119.407 84.9584 119.361 85.1945 119.36C85.4306 119.359 85.6643 119.403 85.8809 119.489C86.0974 119.574 86.2919 119.7 86.4521 119.858C86.6123 120.016 86.7346 120.203 86.8113 120.406C86.94 120.786 86.9095 121.196 86.7256 121.556C86.5417 121.916 86.2175 122.201 85.8159 122.356L83.7121 123.214L91.6838 123.288C92.5704 123.282 93.6621 123.792 93.6037 124.698C93.6063 125.049 93.4785 125.389 93.2413 125.665C93.004 125.94 92.6713 126.134 92.2974 126.215C92.2996 126.223 92.3009 126.231 92.3012 126.239C92.3003 126.244 92.2989 126.25 92.2971 126.256L93.6643 126.247C93.9173 126.246 94.1675 126.296 94.3966 126.393C94.6258 126.491 94.8281 126.634 94.989 126.812C95.1498 126.99 95.265 127.198 95.3263 127.422C95.3876 127.646 95.3934 127.879 95.3433 128.105C95.2561 128.46 95.0379 128.776 94.7252 129.002C94.4125 129.227 94.0242 129.348 93.6254 129.344L93.0438 129.348C93.0361 129.363 93.0255 129.377 93.0124 129.389C93.406 129.47 93.7553 129.675 93.9979 129.969C94.2405 130.263 94.3605 130.625 94.3366 130.992C94.2977 131.393 94.0942 131.766 93.7669 132.036C93.4395 132.306 93.0124 132.454 92.5707 132.45L91.1257 132.459C91.146 132.472 91.1627 132.489 91.1745 132.509C91.1863 132.529 91.1928 132.551 91.1935 132.574C91.1922 132.601 91.1824 132.627 91.1653 132.649C91.494 132.809 91.7558 133.064 91.9104 133.373C92.0649 133.682 92.1037 134.029 92.0208 134.36C91.9258 134.706 91.7054 135.013 91.3952 135.231C91.0851 135.449 90.7033 135.565 90.3117 135.561L78.1208 135.64C76.4155 135.651 74.7454 135.198 73.3246 134.339C71.9038 133.479 70.797 132.253 70.146 130.817C69.5847 129.579 69.5755 128.19 70.1202 126.945C70.665 125.701 71.7209 124.699 73.0635 124.152L74.6989 123.487Z" fill="#E98862"/>
<g opacity="0.2">
<path opacity="0.2" d="M84.4064 126.176C84.4069 126.213 84.4237 126.249 84.4531 126.275C84.4824 126.302 84.522 126.317 84.5632 126.317L92.1444 126.379C92.186 126.379 92.226 126.364 92.2557 126.338C92.2854 126.311 92.3023 126.275 92.3026 126.237C92.303 126.199 92.2868 126.163 92.2577 126.136C92.2285 126.108 92.1888 126.093 92.1472 126.093L84.5661 126.03C84.5245 126.03 84.4845 126.045 84.4551 126.072C84.4257 126.099 84.4092 126.135 84.4092 126.173L84.4064 126.176Z" fill="#0C0C0C"/>
</g>
<g opacity="0.2">
<path opacity="0.2" d="M84.284 129.222C84.2846 129.26 84.3013 129.296 84.3307 129.322C84.36 129.348 84.3996 129.363 84.4408 129.363L92.9013 129.433C92.9429 129.433 92.9828 129.418 93.0122 129.391C93.0416 129.364 93.0582 129.328 93.0582 129.29C93.0568 129.252 93.0398 129.217 93.0107 129.19C92.9816 129.164 92.9425 129.148 92.9013 129.147L84.4408 129.077C84.4201 129.077 84.3995 129.081 84.3803 129.088C84.3611 129.095 84.3436 129.105 84.3289 129.119C84.3142 129.132 84.3025 129.148 84.2945 129.165C84.2865 129.183 84.2824 129.201 84.2824 129.22L84.284 129.222Z" fill="#0C0C0C"/>
</g>
<g opacity="0.2">
<path opacity="0.2" d="M84.1306 132.519C84.1312 132.557 84.1479 132.592 84.1773 132.619C84.2066 132.645 84.2462 132.66 84.2874 132.66L91.0363 132.715C91.0779 132.716 91.1179 132.701 91.1476 132.674C91.1773 132.648 91.1942 132.612 91.1946 132.574C91.1949 132.536 91.1788 132.499 91.1496 132.472C91.1205 132.445 91.0807 132.43 91.0391 132.43L84.2903 132.374C84.2487 132.374 84.2088 132.389 84.1793 132.416C84.1499 132.443 84.1334 132.479 84.1334 132.517L84.1306 132.519Z" fill="#0C0C0C"/>
</g>
<path d="M77.5069 139.403L23.1135 150.669C21.3065 150.848 19.4786 150.643 17.773 150.07C16.0675 149.498 14.5308 148.573 13.2835 147.368C12.0362 146.164 11.1122 144.712 10.5841 143.127C10.0559 141.543 9.93795 139.868 10.2394 138.235L16.4641 92.6168C16.9818 89.8135 18.7005 87.3123 21.2422 85.6636C23.7839 84.0148 26.9404 83.3535 30.0172 83.8252C33.094 84.2969 35.8392 85.8628 37.6488 88.1786C39.4584 90.4944 40.1842 93.3703 39.6665 96.1737L36.669 128.825L74.4599 121.033L77.5069 139.403Z" fill="#367CFF"/>
<path d="M29.0216 130.108C28.9822 130.108 28.9444 130.094 28.9157 130.07C28.8869 130.045 28.8694 130.012 28.8665 129.976C28.8636 129.94 28.8756 129.905 28.9001 129.877C28.9246 129.848 28.9598 129.83 28.9987 129.824L36.5783 128.35C36.5987 128.347 36.6195 128.347 36.6396 128.352C36.6597 128.356 36.6786 128.364 36.6952 128.375C36.7118 128.387 36.7258 128.401 36.7363 128.417C36.7468 128.433 36.7537 128.451 36.7565 128.47C36.7626 128.507 36.7522 128.545 36.7275 128.576C36.7028 128.606 36.6658 128.626 36.6247 128.632L29.0451 130.107C29.0374 130.108 29.0295 130.108 29.0216 130.108Z" fill="#0C0C0C"/>
<path d="M24.7454 150.874C24.7038 150.876 24.6628 150.864 24.6315 150.839C24.6002 150.814 24.5811 150.778 24.5784 150.74C24.5757 150.702 24.5896 150.665 24.6171 150.637C24.6446 150.608 24.6834 150.591 24.725 150.588L77.1656 139.335L74.1941 121.242L36.6288 128.631C36.6045 128.633 36.5798 128.631 36.5567 128.624C36.5336 128.616 36.5126 128.604 36.4955 128.588C36.4783 128.572 36.4656 128.553 36.4583 128.531C36.451 128.51 36.4493 128.487 36.4534 128.465L38.5606 109.809C38.5638 109.79 38.571 109.773 38.5818 109.757C38.5927 109.741 38.607 109.727 38.6238 109.716C38.6406 109.705 38.6597 109.697 38.6799 109.693C38.7001 109.689 38.721 109.689 38.7413 109.692C38.7823 109.698 38.8189 109.719 38.8431 109.75C38.8672 109.781 38.8768 109.819 38.8699 109.857L36.7995 128.321L74.2672 120.927C74.2874 120.922 74.3085 120.92 74.3292 120.923C74.3499 120.925 74.3699 120.931 74.388 120.941C74.406 120.951 74.4218 120.963 74.4343 120.979C74.4468 120.994 74.456 121.011 74.4611 121.03L77.5082 139.401C77.5178 139.437 77.5116 139.475 77.4909 139.507C77.4703 139.539 77.4367 139.563 77.3974 139.572L24.7658 150.873C24.759 150.874 24.7522 150.874 24.7454 150.874Z" fill="#0C0C0C"/>
<path d="M246.378 132.062L236.567 128.07C236.351 127.982 236.118 127.936 235.882 127.935C235.646 127.934 235.412 127.978 235.196 128.063C234.979 128.149 234.785 128.275 234.625 128.433C234.464 128.591 234.342 128.778 234.266 128.981C234.137 129.361 234.167 129.771 234.351 130.131C234.535 130.491 234.859 130.776 235.261 130.931L237.365 131.788L229.393 131.863C228.506 131.857 227.414 132.367 227.473 133.273C227.47 133.623 227.598 133.964 227.835 134.24C228.073 134.515 228.405 134.709 228.779 134.79C228.777 134.798 228.776 134.806 228.775 134.813C228.776 134.819 228.778 134.825 228.779 134.831L227.413 134.822C227.159 134.82 226.909 134.87 226.68 134.968C226.451 135.066 226.248 135.209 226.088 135.387C225.927 135.565 225.811 135.773 225.75 135.997C225.689 136.221 225.683 136.454 225.733 136.68C225.821 137.034 226.039 137.351 226.351 137.576C226.664 137.802 227.052 137.923 227.451 137.919L228.033 137.923C228.041 137.938 228.051 137.952 228.064 137.964C227.671 138.045 227.322 138.25 227.079 138.544C226.836 138.837 226.716 139.2 226.74 139.567C226.779 139.968 226.983 140.341 227.31 140.611C227.637 140.881 228.065 141.029 228.506 141.025L229.951 141.034C229.931 141.047 229.914 141.064 229.902 141.084C229.891 141.104 229.884 141.126 229.884 141.148C229.885 141.175 229.894 141.202 229.912 141.224C229.583 141.384 229.321 141.639 229.167 141.948C229.012 142.257 228.973 142.604 229.056 142.935C229.151 143.281 229.371 143.588 229.682 143.806C229.992 144.024 230.374 144.14 230.765 144.136L242.956 144.215C244.662 144.226 246.332 143.773 247.753 142.913C249.174 142.054 250.28 140.827 250.931 139.391C251.492 138.153 251.502 136.764 250.957 135.519C250.412 134.275 249.356 133.273 248.014 132.726L246.378 132.062Z" fill="#E98862"/>
<g opacity="0.2">
<path opacity="0.2" d="M236.67 134.75C236.67 134.788 236.653 134.824 236.623 134.85C236.594 134.877 236.555 134.891 236.513 134.891L228.932 134.953C228.912 134.954 228.891 134.95 228.872 134.943C228.853 134.936 228.836 134.926 228.821 134.912C228.806 134.899 228.794 134.884 228.786 134.866C228.778 134.849 228.774 134.831 228.774 134.812C228.774 134.793 228.778 134.774 228.785 134.757C228.793 134.74 228.804 134.724 228.819 134.71C228.833 134.697 228.85 134.686 228.869 134.679C228.888 134.672 228.909 134.668 228.929 134.668L236.511 134.605C236.552 134.605 236.592 134.62 236.621 134.647C236.651 134.674 236.667 134.71 236.667 134.748L236.67 134.75Z" fill="#0C0C0C"/>
</g>
<g opacity="0.2">
<path opacity="0.2" d="M236.793 137.797C236.792 137.834 236.775 137.87 236.746 137.896C236.717 137.923 236.678 137.938 236.637 137.938L228.176 138.007C228.135 138.007 228.095 137.992 228.066 137.966C228.036 137.939 228.02 137.902 228.02 137.865C228.021 137.827 228.038 137.791 228.067 137.765C228.096 137.738 228.135 137.723 228.176 137.722L236.637 137.652C236.679 137.652 236.718 137.667 236.748 137.694C236.777 137.721 236.794 137.757 236.794 137.795L236.793 137.797Z" fill="#0C0C0C"/>
</g>
<g opacity="0.2">
<path opacity="0.2" d="M236.946 141.094C236.946 141.131 236.929 141.167 236.9 141.194C236.87 141.22 236.831 141.235 236.789 141.235L230.041 141.29C230.02 141.29 230 141.287 229.98 141.28C229.961 141.273 229.944 141.262 229.929 141.249C229.915 141.236 229.903 141.22 229.895 141.203C229.887 141.186 229.882 141.167 229.882 141.149C229.882 141.13 229.886 141.111 229.894 141.094C229.901 141.076 229.913 141.061 229.927 141.047C229.942 141.034 229.959 141.023 229.978 141.016C229.997 141.008 230.017 141.005 230.038 141.004L236.787 140.949C236.828 140.949 236.868 140.964 236.897 140.991C236.927 141.018 236.943 141.054 236.943 141.092L236.946 141.094Z" fill="#0C0C0C"/>
</g>
<path d="M246.707 147.977L297.963 150.669C299.77 150.848 301.598 150.643 303.303 150.07C305.009 149.498 306.546 148.573 307.793 147.368C309.04 146.164 309.964 144.712 310.492 143.127C311.021 141.543 311.138 139.868 310.837 138.235L304.614 92.6154C304.357 91.2273 303.803 89.8988 302.984 88.7058C302.164 87.5127 301.094 86.4785 299.835 85.6621C298.577 84.8458 297.154 84.2632 295.649 83.9478C294.143 83.6324 292.584 83.5902 291.06 83.8238C289.537 84.0573 288.079 84.562 286.769 85.3089C285.46 86.0559 284.325 87.0305 283.429 88.1772C282.533 89.3239 281.894 90.6201 281.547 91.9919C281.201 93.3637 281.155 94.7842 281.411 96.1723L284.409 130.825L246.932 129.606L246.707 147.977Z" fill="#367CFF"/>
<path d="M292.055 130.68C292.094 130.68 292.132 130.666 292.161 130.641C292.19 130.617 292.207 130.583 292.21 130.548C292.213 130.512 292.201 130.476 292.177 130.448C292.152 130.42 292.117 130.401 292.078 130.396L284.498 130.35C284.478 130.347 284.457 130.348 284.437 130.353C284.417 130.357 284.398 130.365 284.381 130.376C284.365 130.387 284.351 130.401 284.34 130.418C284.33 130.434 284.323 130.452 284.32 130.47C284.314 130.508 284.324 130.546 284.349 130.577C284.374 130.607 284.411 130.627 284.452 130.633L292.032 130.678C292.039 130.679 292.047 130.68 292.055 130.68Z" fill="#0C0C0C"/>
<path d="M296.332 150.874C296.373 150.876 296.414 150.864 296.446 150.839C296.477 150.814 296.496 150.778 296.499 150.74C296.501 150.702 296.487 150.665 296.46 150.637C296.432 150.608 296.393 150.591 296.352 150.588L247.048 147.911L247.195 129.818L284.447 130.633C284.471 130.635 284.496 130.633 284.519 130.626C284.542 130.618 284.563 130.606 284.58 130.59C284.597 130.574 284.61 130.555 284.618 130.533C284.625 130.512 284.626 130.489 284.622 130.467L282.516 109.81C282.512 109.792 282.505 109.774 282.494 109.758C282.483 109.742 282.469 109.728 282.452 109.717C282.435 109.706 282.416 109.698 282.396 109.694C282.376 109.69 282.355 109.69 282.335 109.693C282.314 109.696 282.295 109.703 282.278 109.713C282.26 109.723 282.245 109.736 282.233 109.751C282.221 109.766 282.212 109.784 282.208 109.802C282.203 109.82 282.202 109.839 282.206 109.858L284.278 130.323L247.124 129.503C247.104 129.498 247.083 129.496 247.062 129.499C247.041 129.501 247.021 129.507 247.003 129.517C246.985 129.527 246.969 129.539 246.957 129.555C246.944 129.57 246.935 129.587 246.93 129.606L246.706 147.977C246.696 148.013 246.703 148.051 246.723 148.083C246.744 148.115 246.777 148.139 246.817 148.148L296.31 150.871C296.317 150.873 296.324 150.874 296.332 150.874Z" fill="#0C0C0C"/>
<path d="M120.226 140.746H116.06L113.723 132.487C113.637 132.193 113.489 131.586 113.281 130.665C113.073 129.743 112.953 129.125 112.921 128.81C112.874 129.197 112.756 129.818 112.567 130.675C112.378 131.532 112.232 132.143 112.13 132.509L109.805 140.746H105.651L101.248 125.025H104.848L107.055 133.606C107.441 135.191 107.72 136.564 107.893 137.725C107.94 137.316 108.048 136.683 108.218 135.827C108.387 134.97 108.546 134.305 108.696 133.832L111.209 125.025H114.668L117.181 133.832C117.291 134.227 117.429 134.829 117.594 135.639C117.76 136.448 117.885 137.144 117.971 137.725C118.05 137.166 118.175 136.469 118.347 135.633C118.52 134.798 118.677 134.122 118.818 133.607L121.014 125.025H124.614L120.226 140.746Z" fill="#0CBC8B"/>
<path d="M136.726 140.746H126.788V125.025H136.726V127.757H130.447V131.208H136.289V133.938H130.447V137.993H136.726V140.746Z" fill="#0CBC8B"/>
<path d="M140.325 140.746V125.025H143.984V137.994H150.983V140.747L140.325 140.746Z" fill="#0CBC8B"/>
<path d="M161.31 127.573C160.69 127.547 160.072 127.663 159.514 127.91C158.955 128.157 158.473 128.527 158.111 128.987C157.355 129.93 156.978 131.243 156.978 132.928C156.978 136.434 158.421 138.187 161.309 138.187C162.817 138.134 164.304 137.854 165.711 137.358V140.154C164.205 140.708 162.592 140.982 160.967 140.961C158.457 140.961 156.537 140.267 155.207 138.88C153.877 137.493 153.212 135.501 153.213 132.906C153.177 131.425 153.512 129.956 154.192 128.61C154.796 127.43 155.777 126.444 157.007 125.782C158.317 125.106 159.804 124.766 161.309 124.798C163.063 124.815 164.789 125.194 166.36 125.906L165.179 128.616C164.545 128.34 163.895 128.096 163.232 127.884C162.615 127.683 161.966 127.577 161.31 127.573Z" fill="#0CBC8B"/>
<path d="M185.044 132.863C185.044 135.466 184.336 137.466 182.92 138.864C181.503 140.262 179.473 140.961 176.83 140.961C174.186 140.961 172.156 140.262 170.74 138.864C169.324 137.466 168.615 135.459 168.615 132.842C168.615 130.225 169.326 128.227 170.746 126.847C172.166 125.467 174.202 124.777 176.853 124.777C179.505 124.777 181.533 125.472 182.938 126.863C184.342 128.254 185.045 130.254 185.044 132.863ZM172.451 132.863C172.451 134.62 172.817 135.942 173.549 136.831C174.281 137.72 175.375 138.165 176.83 138.165C179.749 138.165 181.209 136.398 181.209 132.863C181.209 129.322 179.757 127.551 176.854 127.551C175.398 127.551 174.3 127.998 173.56 128.89C172.819 129.783 172.45 131.107 172.451 132.863Z" fill="#0CBC8B"/>
<path d="M195.926 140.746L191.772 128.412H191.665C191.815 130.921 191.89 132.595 191.89 133.433V140.746H188.62V125.025H193.601L197.685 137.047H197.755L202.087 125.025H207.067V140.746H203.657V133.304C203.657 132.953 203.662 132.548 203.674 132.089C203.685 131.63 203.739 130.411 203.833 128.433H203.727L199.278 140.746H195.926Z" fill="#0CBC8B"/>
<path d="M221.348 140.746H211.41V125.025H221.348V127.757H215.07V131.208H220.912V133.938H215.07V137.993H221.348V140.746Z" fill="#0CBC8B"/>
</svg>
